<mxfile host="app.diagrams.net" modified="2023-10-09T22:25:45.545Z" agent="Mozilla/5.0 (Windows NT 10.0; Win64; x64) AppleWebKit/537.36 (KHTML, like Gecko) Chrome/117.0.0.0 Safari/537.36" etag="qjbbizq--pb4NMa5R0pH" version="22.0.0" type="github">
  <diagram id="C5RBs43oDa-KdzZeNtuy" name="Page-1">
    <mxGraphModel dx="1434" dy="782" grid="1" gridSize="10" guides="1" tooltips="1" connect="1" arrows="1" fold="1" page="1" pageScale="1" pageWidth="827" pageHeight="1169" math="0" shadow="0">
      <root>
        <mxCell id="WIyWlLk6GJQsqaUBKTNV-0" />
        <mxCell id="WIyWlLk6GJQsqaUBKTNV-1" parent="WIyWlLk6GJQsqaUBKTNV-0" />
        <mxCell id="aBrLvRnjZIv21r7JvH6r-1" value="Listing" style="swimlane;fontStyle=0;childLayout=stackLayout;horizontal=1;startSize=26;fillColor=none;horizontalStack=0;resizeParent=1;resizeParentMax=0;resizeLast=0;collapsible=1;marginBottom=0;whiteSpace=wrap;html=1;" vertex="1" parent="WIyWlLk6GJQsqaUBKTNV-1">
          <mxGeometry x="280" y="40" width="210" height="160" as="geometry" />
        </mxCell>
        <mxCell id="aBrLvRnjZIv21r7JvH6r-4" value="&lt;div&gt;address: str&lt;/div&gt;&lt;div&gt;yearBuilt: int&lt;/div&gt;&lt;div&gt;squareFeet: int&lt;/div&gt;&lt;div&gt;bedrooms: int&lt;/div&gt;&lt;div&gt;bathrooms: int&lt;/div&gt;&lt;div&gt;askingPrice: int&lt;/div&gt;&lt;div&gt;status: str&lt;/div&gt;&lt;div&gt;media: str&lt;/div&gt;" style="text;strokeColor=none;fillColor=none;align=left;verticalAlign=top;spacingLeft=4;spacingRight=4;overflow=hidden;rotatable=0;points=[[0,0.5],[1,0.5]];portConstraint=eastwest;whiteSpace=wrap;html=1;" vertex="1" parent="aBrLvRnjZIv21r7JvH6r-1">
          <mxGeometry y="26" width="210" height="134" as="geometry" />
        </mxCell>
        <mxCell id="aBrLvRnjZIv21r7JvH6r-5" value="Structure" style="swimlane;fontStyle=0;childLayout=stackLayout;horizontal=1;startSize=26;fillColor=none;horizontalStack=0;resizeParent=1;resizeParentMax=0;resizeLast=0;collapsible=1;marginBottom=0;whiteSpace=wrap;html=1;" vertex="1" parent="WIyWlLk6GJQsqaUBKTNV-1">
          <mxGeometry x="150" y="280" width="140" height="100" as="geometry" />
        </mxCell>
        <mxCell id="aBrLvRnjZIv21r7JvH6r-6" value="squareFeet: int&lt;br&gt;numberOfBedrooms: int&lt;br&gt;numberofBathrooms: int" style="text;strokeColor=none;fillColor=none;align=left;verticalAlign=top;spacingLeft=4;spacingRight=4;overflow=hidden;rotatable=0;points=[[0,0.5],[1,0.5]];portConstraint=eastwest;whiteSpace=wrap;html=1;" vertex="1" parent="aBrLvRnjZIv21r7JvH6r-5">
          <mxGeometry y="26" width="140" height="74" as="geometry" />
        </mxCell>
        <mxCell id="aBrLvRnjZIv21r7JvH6r-7" value="Office" style="swimlane;fontStyle=0;childLayout=stackLayout;horizontal=1;startSize=26;fillColor=none;horizontalStack=0;resizeParent=1;resizeParentMax=0;resizeLast=0;collapsible=1;marginBottom=0;whiteSpace=wrap;html=1;" vertex="1" parent="WIyWlLk6GJQsqaUBKTNV-1">
          <mxGeometry x="580" y="240" width="140" height="100" as="geometry" />
        </mxCell>
        <mxCell id="aBrLvRnjZIv21r7JvH6r-8" value="officeName: str&lt;br&gt;officeManager: str&lt;br&gt;officePhone: int&lt;br&gt;streetAddress: int" style="text;strokeColor=none;fillColor=none;align=left;verticalAlign=top;spacingLeft=4;spacingRight=4;overflow=hidden;rotatable=0;points=[[0,0.5],[1,0.5]];portConstraint=eastwest;whiteSpace=wrap;html=1;" vertex="1" parent="aBrLvRnjZIv21r7JvH6r-7">
          <mxGeometry y="26" width="140" height="74" as="geometry" />
        </mxCell>
        <mxCell id="aBrLvRnjZIv21r7JvH6r-10" value="" style="endArrow=none;html=1;rounded=0;entryX=0;entryY=0.75;entryDx=0;entryDy=0;" edge="1" parent="WIyWlLk6GJQsqaUBKTNV-1" target="aBrLvRnjZIv21r7JvH6r-1">
          <mxGeometry width="50" height="50" relative="1" as="geometry">
            <mxPoint x="240" y="280" as="sourcePoint" />
            <mxPoint x="290" y="230" as="targetPoint" />
          </mxGeometry>
        </mxCell>
        <mxCell id="aBrLvRnjZIv21r7JvH6r-11" value="Contains" style="edgeLabel;html=1;align=center;verticalAlign=middle;resizable=0;points=[];" vertex="1" connectable="0" parent="aBrLvRnjZIv21r7JvH6r-10">
          <mxGeometry x="-0.4" relative="1" as="geometry">
            <mxPoint as="offset" />
          </mxGeometry>
        </mxCell>
        <mxCell id="aBrLvRnjZIv21r7JvH6r-12" value="1" style="edgeLabel;html=1;align=center;verticalAlign=middle;resizable=0;points=[];" vertex="1" connectable="0" parent="aBrLvRnjZIv21r7JvH6r-10">
          <mxGeometry x="0.585" relative="1" as="geometry">
            <mxPoint as="offset" />
          </mxGeometry>
        </mxCell>
        <mxCell id="aBrLvRnjZIv21r7JvH6r-13" value="0..*" style="edgeLabel;html=1;align=center;verticalAlign=middle;resizable=0;points=[];" vertex="1" connectable="0" parent="aBrLvRnjZIv21r7JvH6r-10">
          <mxGeometry x="-0.82" y="1" relative="1" as="geometry">
            <mxPoint as="offset" />
          </mxGeometry>
        </mxCell>
        <mxCell id="aBrLvRnjZIv21r7JvH6r-14" value="" style="endArrow=none;html=1;rounded=0;entryX=1;entryY=0.657;entryDx=0;entryDy=0;entryPerimeter=0;exitX=0.386;exitY=-0.01;exitDx=0;exitDy=0;exitPerimeter=0;" edge="1" parent="WIyWlLk6GJQsqaUBKTNV-1" source="aBrLvRnjZIv21r7JvH6r-7" target="aBrLvRnjZIv21r7JvH6r-4">
          <mxGeometry width="50" height="50" relative="1" as="geometry">
            <mxPoint x="530" y="230" as="sourcePoint" />
            <mxPoint x="570" y="110" as="targetPoint" />
          </mxGeometry>
        </mxCell>
        <mxCell id="aBrLvRnjZIv21r7JvH6r-15" value="Listed Through" style="edgeLabel;html=1;align=center;verticalAlign=middle;resizable=0;points=[];" vertex="1" connectable="0" parent="aBrLvRnjZIv21r7JvH6r-14">
          <mxGeometry x="-0.4" relative="1" as="geometry">
            <mxPoint as="offset" />
          </mxGeometry>
        </mxCell>
        <mxCell id="aBrLvRnjZIv21r7JvH6r-16" value="1" style="edgeLabel;html=1;align=center;verticalAlign=middle;resizable=0;points=[];" vertex="1" connectable="0" parent="aBrLvRnjZIv21r7JvH6r-14">
          <mxGeometry x="0.585" relative="1" as="geometry">
            <mxPoint as="offset" />
          </mxGeometry>
        </mxCell>
        <mxCell id="aBrLvRnjZIv21r7JvH6r-17" value="1" style="edgeLabel;html=1;align=center;verticalAlign=middle;resizable=0;points=[];" vertex="1" connectable="0" parent="aBrLvRnjZIv21r7JvH6r-14">
          <mxGeometry x="-0.82" y="1" relative="1" as="geometry">
            <mxPoint as="offset" />
          </mxGeometry>
        </mxCell>
        <mxCell id="aBrLvRnjZIv21r7JvH6r-21" value="Agent" style="swimlane;fontStyle=0;childLayout=stackLayout;horizontal=1;startSize=26;fillColor=none;horizontalStack=0;resizeParent=1;resizeParentMax=0;resizeLast=0;collapsible=1;marginBottom=0;whiteSpace=wrap;html=1;" vertex="1" parent="WIyWlLk6GJQsqaUBKTNV-1">
          <mxGeometry x="315" y="330" width="140" height="100" as="geometry" />
        </mxCell>
        <mxCell id="aBrLvRnjZIv21r7JvH6r-22" value="&lt;div&gt;name: str&lt;/div&gt;&lt;div&gt;officePhone: int&lt;/div&gt;&lt;div&gt;cellPhone: int&lt;/div&gt;&lt;div&gt;emailAddress: str&lt;/div&gt;" style="text;strokeColor=none;fillColor=none;align=left;verticalAlign=top;spacingLeft=4;spacingRight=4;overflow=hidden;rotatable=0;points=[[0,0.5],[1,0.5]];portConstraint=eastwest;whiteSpace=wrap;html=1;" vertex="1" parent="aBrLvRnjZIv21r7JvH6r-21">
          <mxGeometry y="26" width="140" height="74" as="geometry" />
        </mxCell>
        <mxCell id="aBrLvRnjZIv21r7JvH6r-25" value="" style="endArrow=none;html=1;rounded=0;entryX=0.405;entryY=1.007;entryDx=0;entryDy=0;entryPerimeter=0;exitX=0.364;exitY=-0.01;exitDx=0;exitDy=0;exitPerimeter=0;" edge="1" target="aBrLvRnjZIv21r7JvH6r-4" parent="WIyWlLk6GJQsqaUBKTNV-1" source="aBrLvRnjZIv21r7JvH6r-21">
          <mxGeometry width="50" height="50" relative="1" as="geometry">
            <mxPoint x="260" y="470" as="sourcePoint" />
            <mxPoint x="300" y="360" as="targetPoint" />
          </mxGeometry>
        </mxCell>
        <mxCell id="aBrLvRnjZIv21r7JvH6r-26" value="Listed By" style="edgeLabel;html=1;align=center;verticalAlign=middle;resizable=0;points=[];" vertex="1" connectable="0" parent="aBrLvRnjZIv21r7JvH6r-25">
          <mxGeometry x="-0.4" relative="1" as="geometry">
            <mxPoint as="offset" />
          </mxGeometry>
        </mxCell>
        <mxCell id="aBrLvRnjZIv21r7JvH6r-27" value="1" style="edgeLabel;html=1;align=center;verticalAlign=middle;resizable=0;points=[];" vertex="1" connectable="0" parent="aBrLvRnjZIv21r7JvH6r-25">
          <mxGeometry x="0.585" relative="1" as="geometry">
            <mxPoint as="offset" />
          </mxGeometry>
        </mxCell>
        <mxCell id="aBrLvRnjZIv21r7JvH6r-28" value="0..1" style="edgeLabel;html=1;align=center;verticalAlign=middle;resizable=0;points=[];" vertex="1" connectable="0" parent="aBrLvRnjZIv21r7JvH6r-25">
          <mxGeometry x="-0.82" y="1" relative="1" as="geometry">
            <mxPoint as="offset" />
          </mxGeometry>
        </mxCell>
        <mxCell id="aBrLvRnjZIv21r7JvH6r-34" value="Owner" style="swimlane;fontStyle=0;childLayout=stackLayout;horizontal=1;startSize=26;fillColor=none;horizontalStack=0;resizeParent=1;resizeParentMax=0;resizeLast=0;collapsible=1;marginBottom=0;whiteSpace=wrap;html=1;" vertex="1" parent="WIyWlLk6GJQsqaUBKTNV-1">
          <mxGeometry x="41" y="130" width="140" height="70" as="geometry" />
        </mxCell>
        <mxCell id="aBrLvRnjZIv21r7JvH6r-35" value="name: str&lt;br&gt;phoneNumber: int" style="text;strokeColor=none;fillColor=none;align=left;verticalAlign=top;spacingLeft=4;spacingRight=4;overflow=hidden;rotatable=0;points=[[0,0.5],[1,0.5]];portConstraint=eastwest;whiteSpace=wrap;html=1;" vertex="1" parent="aBrLvRnjZIv21r7JvH6r-34">
          <mxGeometry y="26" width="140" height="44" as="geometry" />
        </mxCell>
        <mxCell id="aBrLvRnjZIv21r7JvH6r-36" value="" style="endArrow=none;html=1;rounded=0;entryX=0;entryY=0.306;entryDx=0;entryDy=0;entryPerimeter=0;" edge="1" parent="WIyWlLk6GJQsqaUBKTNV-1" target="aBrLvRnjZIv21r7JvH6r-4">
          <mxGeometry width="50" height="50" relative="1" as="geometry">
            <mxPoint x="181" y="170" as="sourcePoint" />
            <mxPoint x="231" y="120" as="targetPoint" />
          </mxGeometry>
        </mxCell>
        <mxCell id="aBrLvRnjZIv21r7JvH6r-37" value="Owned by" style="edgeLabel;html=1;align=center;verticalAlign=middle;resizable=0;points=[];" vertex="1" connectable="0" parent="aBrLvRnjZIv21r7JvH6r-36">
          <mxGeometry x="0.0641" y="-1" relative="1" as="geometry">
            <mxPoint y="-1" as="offset" />
          </mxGeometry>
        </mxCell>
        <mxCell id="aBrLvRnjZIv21r7JvH6r-38" value="0..*" style="edgeLabel;html=1;align=center;verticalAlign=middle;resizable=0;points=[];" vertex="1" connectable="0" parent="aBrLvRnjZIv21r7JvH6r-36">
          <mxGeometry x="-0.8013" relative="1" as="geometry">
            <mxPoint as="offset" />
          </mxGeometry>
        </mxCell>
        <mxCell id="aBrLvRnjZIv21r7JvH6r-39" value="1&lt;br&gt;" style="edgeLabel;html=1;align=center;verticalAlign=middle;resizable=0;points=[];" vertex="1" connectable="0" parent="aBrLvRnjZIv21r7JvH6r-36">
          <mxGeometry x="0.7164" relative="1" as="geometry">
            <mxPoint as="offset" />
          </mxGeometry>
        </mxCell>
        <mxCell id="aBrLvRnjZIv21r7JvH6r-40" value="Agent Listing Association" style="swimlane;fontStyle=0;childLayout=stackLayout;horizontal=1;startSize=26;fillColor=none;horizontalStack=0;resizeParent=1;resizeParentMax=0;resizeLast=0;collapsible=1;marginBottom=0;whiteSpace=wrap;html=1;" vertex="1" parent="WIyWlLk6GJQsqaUBKTNV-1">
          <mxGeometry x="540" y="440" width="160" height="50" as="geometry" />
        </mxCell>
        <mxCell id="aBrLvRnjZIv21r7JvH6r-41" value="commissionPercentage" style="text;strokeColor=none;fillColor=none;align=left;verticalAlign=top;spacingLeft=4;spacingRight=4;overflow=hidden;rotatable=0;points=[[0,0.5],[1,0.5]];portConstraint=eastwest;whiteSpace=wrap;html=1;" vertex="1" parent="aBrLvRnjZIv21r7JvH6r-40">
          <mxGeometry y="26" width="160" height="24" as="geometry" />
        </mxCell>
        <mxCell id="aBrLvRnjZIv21r7JvH6r-42" value="" style="endArrow=none;dashed=1;html=1;rounded=0;exitX=0.25;exitY=0;exitDx=0;exitDy=0;" edge="1" parent="WIyWlLk6GJQsqaUBKTNV-1" source="aBrLvRnjZIv21r7JvH6r-40">
          <mxGeometry width="50" height="50" relative="1" as="geometry">
            <mxPoint x="430" y="250" as="sourcePoint" />
            <mxPoint x="480" y="200" as="targetPoint" />
          </mxGeometry>
        </mxCell>
        <mxCell id="aBrLvRnjZIv21r7JvH6r-43" value="" style="endArrow=diamondThin;endFill=1;endSize=24;html=1;rounded=0;entryX=1;entryY=0.5;entryDx=0;entryDy=0;exitX=0.006;exitY=-0.208;exitDx=0;exitDy=0;exitPerimeter=0;" edge="1" parent="WIyWlLk6GJQsqaUBKTNV-1" source="aBrLvRnjZIv21r7JvH6r-41" target="aBrLvRnjZIv21r7JvH6r-22">
          <mxGeometry width="160" relative="1" as="geometry">
            <mxPoint x="350" y="520" as="sourcePoint" />
            <mxPoint x="510" y="520" as="targetPoint" />
          </mxGeometry>
        </mxCell>
      </root>
    </mxGraphModel>
  </diagram>
</mxfile>
